P3
# Created by GIMP version 2.10.20 PNM plug-in
3 2
200
10
20
33
125
66
3
7
87
90
55
44
66
28
0
200
17
99
200
