P3
2 2
130
0
0
0
75
16
0
0
37
40
5
0
16
