P3
2 2
255
23
23
23
0
0
0
80
80
80
56
56
56
