P3
2 2
255
21
21
21
64
64
64
61
61
61
55
55
55
