P3
# Created by GIMP version 2.10.20 PNM plug-in
2 2
255
10
20
33
125
66
3
7
87
90
55
44
66
