P3
2 2
130
20
30
43
130
76
13
17
97
100
65
54
76
