P3
2 2
255
33
33
33
3
3
3
90
90
90
66
66
66
