P3
2 2
255
10
10
10
125
125
125
7
7
7
55
55
55
