P3
2 2
255
20
20
20
66
66
66
87
87
87
44
44
44
