P3
2 2
255
19
19
19
74
74
74
70
70
70
48
48
48
