P3
2 2
255
3
3
3
0
0
0
60
60
60
36
36
36
