P3
2 2
255
55
44
66
7
87
90
125
66
3
10
20
33
